# Blender v2.91.2 OBJ File: ''
# www.blender.org
mtllib staroid.mtl
o Staroid
v -50.000000 0.000000 0.277541
v -50.000000 0.000000 -0.277541
v -50.000000 -0.309939 0.000000
v -50.000000 0.309939 0.000000
v -0.003656 50.000000 0.000000
v 0.003656 50.000000 0.000000
v 0.000000 50.000000 -0.004061
v 0.000000 50.000000 0.004061
v 50.000000 0.000000 0.277541
v 50.000000 0.000000 -0.277541
v 50.000000 0.309939 0.000000
v 50.000000 -0.309939 0.000000
v -0.003656 -50.000000 0.000000
v 0.003656 -50.000000 0.000000
v 0.000000 -50.000000 0.004061
v 0.000000 -50.000000 -0.004061
v -0.003656 0.000000 50.000000
v 0.003656 0.000000 50.000000
v 0.000000 0.004061 50.000000
v 0.000000 -0.004061 50.000000
v 0.003656 0.000000 -50.000000
v -0.003656 0.000000 -50.000000
v 0.000000 0.004061 -50.000000
v 0.000000 -0.004061 -50.000000
v 9.074239 21.121696 0.000000
v 6.599032 21.121696 -1.798343
v 4.979797 28.569412 0.000000
v 0.000000 1.244648 -39.372169
v 2.025787 0.000000 -36.744190
v 1.096196 0.000000 -39.605175
v 0.000000 3.721684 -32.194195
v 4.326067 0.000000 -29.664656
v 0.000000 5.259272 -27.738565
v 5.830176 0.000000 -27.059462
v 0.000000 8.267246 -22.351454
v 3.529896 8.267246 -16.237494
v 34.550282 0.000000 -2.450651
v 40.267460 1.349490 0.000000
v 41.831478 0.000000 -0.902985
v 33.754013 2.861790 0.000000
v 2.812954 33.552639 0.000000
v 0.000000 35.238270 -2.310069
v 2.079995 35.238270 0.000000
v 0.000000 26.938984 -6.317999
v 0.000000 39.988213 -1.568054
v 1.741501 37.644794 0.000000
v 0.000000 11.816586 -18.275480
v 0.000000 15.824516 -13.672873
v 0.781751 0.000000 -42.596916
v 0.000000 0.786057 -43.300808
v 44.744789 0.309939 0.000000
v 44.773960 0.000000 -0.277541
v 14.533025 0.000000 -15.081017
v 9.552108 0.000000 -20.612886
v 21.132486 8.777889 0.000000
v 21.279896 8.267246 -0.255322
v 0.000000 21.121696 -9.127312
v 11.565000 8.267246 -7.313607
v 31.802135 0.000000 -3.674204
v 21.853357 8.267246 0.000000
v 18.979616 0.000000 -11.077289
v 16.545916 0.000000 -12.845475
v 25.001827 0.000000 -6.701896
v 21.465397 8.542065 0.000000
v -2.025787 0.000000 -36.744190
v -1.096196 0.000000 -39.605175
v -2.812954 33.552639 0.000000
v -2.079995 35.238270 0.000000
v -5.830176 0.000000 -27.059462
v -4.326067 0.000000 -29.664656
v -3.529896 8.267246 -16.237494
v -0.781751 0.000000 -42.596916
v -6.599032 21.121696 -1.798343
v -11.565000 8.267246 -7.313607
v -14.533025 0.000000 -15.081017
v -16.545916 0.000000 -12.845475
v -21.132486 8.777889 0.000000
v -9.074239 21.121696 0.000000
v -21.279896 8.267246 -0.255322
v -21.465397 8.542065 0.000000
v -9.552108 0.000000 -20.612886
v -1.741501 37.644794 0.000000
v -4.979797 28.569412 0.000000
v -21.853357 8.267246 0.000000
v -18.979616 0.000000 -11.077289
v -25.001827 0.000000 -6.701896
v -31.802135 0.000000 -3.674204
v -33.754013 2.861790 0.000000
v -34.550282 0.000000 -2.450651
v -44.773960 0.000000 -0.277541
v -44.744789 0.309939 0.000000
v -40.267460 1.349490 0.000000
v -41.831478 0.000000 -0.902985
v 0.000000 3.721684 32.194195
v 4.326067 0.000000 29.664656
v 0.000000 5.259272 27.738565
v 2.025787 0.000000 36.744190
v 6.599032 21.121696 1.798343
v 3.529896 8.267246 16.237494
v 0.000000 11.816586 18.275480
v 0.000000 8.267246 22.351454
v 0.000000 1.244648 39.372169
v 0.781751 0.000000 42.596916
v 1.096196 0.000000 39.605175
v 0.000000 0.786057 43.300808
v 5.830176 0.000000 27.059462
v 34.550282 0.000000 2.450651
v 41.831478 0.000000 0.902985
v 0.000000 35.238270 2.310069
v 0.000000 26.938984 6.317999
v 9.552108 0.000000 20.612886
v 44.773960 0.000000 0.277541
v 21.279896 8.267246 0.255322
v 31.802135 0.000000 3.674204
v 14.533025 0.000000 15.081017
v 0.000000 39.988213 1.568054
v 11.565000 8.267246 7.313607
v 16.545916 0.000000 12.845475
v 0.000000 21.121696 9.127312
v 25.001827 0.000000 6.701896
v 18.979616 0.000000 11.077289
v 0.000000 15.824516 13.672873
v -25.001827 0.000000 6.701896
v -21.279896 8.267246 0.255322
v -31.802135 0.000000 3.674204
v -11.565000 8.267246 7.313607
v -6.599032 21.121696 1.798343
v -18.979616 0.000000 11.077289
v -16.545916 0.000000 12.845475
v -0.781751 0.000000 42.596916
v -34.550282 0.000000 2.450651
v -41.831478 0.000000 0.902985
v -44.773960 0.000000 0.277541
v -14.533025 0.000000 15.081017
v -3.529896 8.267246 16.237494
v -1.096196 0.000000 39.605175
v -4.326067 0.000000 29.664656
v -2.025787 0.000000 36.744190
v -9.552108 0.000000 20.612886
v -5.830176 0.000000 27.059462
v 1.741501 -37.644794 0.000000
v 0.000000 -35.238270 -2.310069
v 2.079995 -35.238270 0.000000
v 0.000000 -39.988213 -1.568054
v 6.599032 -21.121696 -1.798343
v 0.000000 -26.938984 -6.317999
v 0.000000 -21.121696 -9.127312
v 4.979797 -28.569412 0.000000
v 2.812954 -33.552639 0.000000
v 21.853357 -8.267246 0.000000
v 21.465397 -8.542065 0.000000
v 21.279896 -8.267246 -0.255322
v 0.000000 -1.244648 -39.372169
v 0.000000 -3.721684 -32.194195
v 0.000000 -8.267246 -22.351454
v 3.529896 -8.267246 -16.237494
v 0.000000 -11.816586 -18.275480
v 0.000000 -0.786057 -43.300808
v 11.565000 -8.267246 -7.313607
v 0.000000 -15.824516 -13.672873
v 0.000000 -5.259272 -27.738565
v 9.074239 -21.121696 0.000000
v 44.744789 -0.309939 0.000000
v 21.132486 -8.777889 0.000000
v 40.267460 -1.349490 0.000000
v 33.754013 -2.861790 0.000000
v -21.279896 -8.267246 -0.255322
v -21.465397 -8.542065 0.000000
v -21.853357 -8.267246 0.000000
v -6.599032 -21.121696 -1.798343
v -4.979797 -28.569412 0.000000
v -2.812954 -33.552639 0.000000
v -3.529896 -8.267246 -16.237494
v -2.079995 -35.238270 0.000000
v -11.565000 -8.267246 -7.313607
v -21.132486 -8.777889 0.000000
v -9.074239 -21.121696 0.000000
v -40.267460 -1.349490 0.000000
v -33.754013 -2.861790 0.000000
v -1.741501 -37.644794 0.000000
v -44.744789 -0.309939 0.000000
v 6.599032 -21.121696 1.798343
v 0.000000 -35.238270 2.310069
v 0.000000 -26.938984 6.317999
v 0.000000 -5.259272 27.738565
v 0.000000 -8.267246 22.351454
v 3.529896 -8.267246 16.237494
v 0.000000 -3.721684 32.194195
v 0.000000 -15.824516 13.672873
v 0.000000 -21.121696 9.127312
v 0.000000 -1.244648 39.372169
v 0.000000 -11.816586 18.275480
v 21.279896 -8.267246 0.255322
v 0.000000 -39.988213 1.568054
v 11.565000 -8.267246 7.313607
v 0.000000 -0.786057 43.300808
v -6.599032 -21.121696 1.798343
v -3.529896 -8.267246 16.237494
v -11.565000 -8.267246 7.313607
v -21.279896 -8.267246 0.255322
vn -1.0000 0.0000 0.0000
vn 0.0000 1.0000 0.0000
vn 1.0000 0.0000 0.0000
vn 0.0000 -1.0000 0.0000
vn 0.0000 0.0000 1.0000
vn 0.0000 0.0000 -1.0000
vn 0.5593 0.3075 -0.7698
vn 0.7085 0.6671 -0.2302
vn 0.6452 0.6671 -0.3725
vn 0.1549 0.6671 -0.7287
vn 0.7071 0.3075 -0.6367
vn 0.7391 0.1040 -0.6655
vn 0.7510 0.4979 -0.4336
vn 0.7409 0.6671 -0.0779
vn 0.5536 0.6671 -0.4985
vn 0.5097 0.4979 -0.7016
vn 0.6445 0.4979 -0.5803
vn 0.3030 0.6671 -0.6806
vn 0.4379 0.6671 -0.6027
vn 0.0000 0.6671 -0.7450
vn 0.3527 0.4979 -0.7922
vn -0.7085 0.6671 -0.2302
vn -0.7071 0.3075 -0.6367
vn -0.6452 0.6671 -0.3725
vn -0.7409 0.6671 -0.0779
vn -0.6445 0.4979 -0.5803
vn -0.5536 0.6671 -0.4985
vn -0.5097 0.4979 -0.7016
vn -0.3527 0.4979 -0.7922
vn -0.7510 0.4979 -0.4336
vn -0.7391 0.1040 -0.6655
vn -0.5593 0.3075 -0.7698
vn -0.4379 0.6671 -0.6027
vn -0.3030 0.6671 -0.6806
vn -0.1549 0.6671 -0.7287
vn 0.7085 0.6671 0.2302
vn 0.5593 0.3075 0.7698
vn 0.7510 0.4979 0.4336
vn 0.7409 0.6671 0.0779
vn 0.6452 0.6671 0.3725
vn 0.1549 0.6671 0.7287
vn 0.7071 0.3075 0.6367
vn 0.0000 0.6671 0.7450
vn 0.3527 0.4979 0.7922
vn 0.3030 0.6671 0.6806
vn 0.5536 0.6671 0.4985
vn 0.7391 0.1040 0.6655
vn 0.6445 0.4979 0.5803
vn 0.5097 0.4979 0.7016
vn 0.4379 0.6671 0.6027
vn -0.3030 0.6671 0.6806
vn -0.5097 0.4979 0.7016
vn -0.4379 0.6671 0.6027
vn -0.7409 0.6671 0.0779
vn -0.7391 0.1040 0.6655
vn -0.1549 0.6671 0.7287
vn -0.5536 0.6671 0.4985
vn -0.6445 0.4979 0.5803
vn -0.3527 0.4979 0.7922
vn -0.7085 0.6671 0.2302
vn -0.7071 0.3075 0.6367
vn -0.7510 0.4979 0.4336
vn -0.5593 0.3075 0.7698
vn -0.6452 0.6671 0.3725
vn 0.7391 -0.1040 -0.6655
vn 0.7071 -0.3075 -0.6367
vn 0.3527 -0.4979 -0.7922
vn 0.7085 -0.6671 -0.2302
vn 0.7510 -0.4979 -0.4336
vn 0.4379 -0.6671 -0.6027
vn 0.7409 -0.6671 -0.0779
vn 0.5536 -0.6671 -0.4985
vn 0.6445 -0.4979 -0.5803
vn 0.5593 -0.3075 -0.7698
vn 0.6452 -0.6671 -0.3725
vn 0.0000 -0.6671 -0.7450
vn 0.1549 -0.6671 -0.7287
vn 0.5097 -0.4979 -0.7016
vn 0.3030 -0.6671 -0.6806
vn -0.3527 -0.4979 -0.7922
vn -0.7071 -0.3075 -0.6367
vn -0.6452 -0.6671 -0.3725
vn -0.7085 -0.6671 -0.2302
vn -0.7409 -0.6671 -0.0779
vn -0.4379 -0.6671 -0.6027
vn -0.5097 -0.4979 -0.7016
vn -0.5536 -0.6671 -0.4985
vn -0.1549 -0.6671 -0.7287
vn -0.3030 -0.6671 -0.6806
vn -0.7391 -0.1040 -0.6655
vn -0.5593 -0.3075 -0.7698
vn -0.7510 -0.4979 -0.4336
vn -0.6445 -0.4979 -0.5803
vn 0.5593 -0.3075 0.7698
vn 0.7071 -0.3075 0.6367
vn 0.6452 -0.6671 0.3725
vn 0.7085 -0.6671 0.2302
vn 0.6445 -0.4979 0.5803
vn 0.7510 -0.4979 0.4336
vn 0.3527 -0.4979 0.7922
vn 0.3030 -0.6671 0.6806
vn 0.5536 -0.6671 0.4985
vn 0.7391 -0.1040 0.6655
vn 0.5097 -0.4979 0.7016
vn 0.1549 -0.6671 0.7287
vn 0.7409 -0.6671 0.0779
vn 0.0000 -0.6671 0.7450
vn 0.4379 -0.6671 0.6027
vn -0.6445 -0.4979 0.5803
vn -0.7409 -0.6671 0.0779
vn -0.7071 -0.3075 0.6367
vn -0.5593 -0.3075 0.7698
vn -0.6452 -0.6671 0.3725
vn -0.7391 -0.1040 0.6655
vn -0.7510 -0.4979 0.4336
vn -0.5097 -0.4979 0.7016
vn -0.5536 -0.6671 0.4985
vn -0.7085 -0.6671 0.2302
vn -0.3030 -0.6671 0.6806
vn -0.4379 -0.6671 0.6027
vn -0.3527 -0.4979 0.7922
vn -0.1549 -0.6671 0.7287
usemtl None
s off
f 1//1 2//1 3//1
f 2//1 1//1 4//1
f 5//2 6//2 7//2
f 6//2 5//2 8//2
f 9//3 10//3 11//3
f 10//3 9//3 12//3
f 13//4 14//4 15//4
f 14//4 13//4 16//4
f 17//5 18//5 19//5
f 18//5 17//5 20//5
f 21//6 22//6 23//6
f 22//6 21//6 24//6
f 25//7 26//7 27//7
f 28//8 29//8 30//8
f 29//8 28//8 31//8
f 31//8 32//8 29//8
f 32//8 31//8 33//8
f 33//9 34//9 32//9
f 34//9 33//9 35//9
f 34//9 35//9 36//9
f 37//10 38//10 39//10
f 38//10 37//10 40//10
f 41//11 42//11 43//11
f 42//11 41//11 44//11
f 6//12 45//12 7//12
f 45//12 6//12 46//12
f 46//12 42//12 45//12
f 42//12 46//12 43//12
f 36//13 47//13 48//13
f 28//14 49//14 50//14
f 49//14 28//14 30//14
f 50//14 21//14 23//14
f 21//14 50//14 49//14
f 39//10 51//10 52//10
f 51//10 39//10 38//10
f 53//15 54//15 36//15
f 36//13 35//13 47//13
f 55//16 26//16 25//16
f 26//16 55//16 56//16
f 26//17 48//17 57//17
f 48//17 26//17 36//17
f 56//16 58//16 26//16
f 59//18 60//18 40//18
f 59//18 40//18 37//18
f 60//18 59//18 56//18
f 54//9 34//9 36//9
f 58//19 61//19 62//19
f 61//19 58//19 56//19
f 52//20 11//20 10//20
f 11//20 52//20 51//20
f 44//11 26//11 57//11
f 27//11 44//11 41//11
f 44//11 27//11 26//11
f 59//18 63//18 56//18
f 56//19 63//19 61//19
f 26//17 58//17 36//17
f 53//15 58//15 62//15
f 58//15 53//15 36//15
f 64//21 56//21 55//21
f 64//21 60//21 56//21
f 65//22 28//22 66//22
f 28//22 65//22 31//22
f 67//23 42//23 44//23
f 42//23 67//23 68//23
f 69//24 35//24 33//24
f 69//24 33//24 70//24
f 35//24 69//24 71//24
f 28//25 72//25 66//25
f 72//25 28//25 50//25
f 73//26 71//26 74//26
f 75//27 74//27 71//27
f 74//27 75//27 76//27
f 73//28 77//28 78//28
f 77//28 73//28 79//28
f 77//29 79//29 80//29
f 48//30 47//30 71//30
f 47//30 35//30 71//30
f 71//24 69//24 81//24
f 22//25 50//25 23//25
f 50//25 22//25 72//25
f 82//31 42//31 68//31
f 42//31 82//31 45//31
f 70//22 31//22 65//22
f 31//22 70//22 33//22
f 71//27 81//27 75//27
f 83//32 73//32 78//32
f 80//29 79//29 84//29
f 85//33 74//33 76//33
f 74//33 85//33 79//33
f 73//26 48//26 71//26
f 48//26 73//26 57//26
f 73//23 44//23 57//23
f 83//23 44//23 73//23
f 44//23 83//23 67//23
f 73//28 74//28 79//28
f 79//34 86//34 87//34
f 5//31 45//31 82//31
f 45//31 5//31 7//31
f 87//34 84//34 79//34
f 84//34 87//34 88//34
f 88//34 87//34 89//34
f 79//33 85//33 86//33
f 90//20 4//20 91//20
f 4//20 90//20 2//20
f 89//35 92//35 88//35
f 92//35 89//35 93//35
f 93//35 91//35 92//35
f 91//35 93//35 90//35
f 94//36 95//36 96//36
f 95//36 94//36 97//36
f 98//37 25//37 27//37
f 99//38 100//38 101//38
f 102//39 103//39 104//39
f 103//39 102//39 105//39
f 101//40 106//40 99//40
f 96//40 106//40 101//40
f 106//40 96//40 95//40
f 107//41 38//41 40//41
f 38//41 107//41 108//41
f 109//42 41//42 43//42
f 41//42 109//42 110//42
f 106//40 111//40 99//40
f 112//43 11//43 51//43
f 11//43 112//43 9//43
f 113//44 64//44 55//44
f 60//44 64//44 113//44
f 114//45 60//45 113//45
f 60//45 114//45 40//45
f 40//45 114//45 107//45
f 102//36 97//36 94//36
f 97//36 102//36 104//36
f 18//39 105//39 19//39
f 105//39 18//39 103//39
f 111//46 115//46 99//46
f 108//41 51//41 38//41
f 51//41 108//41 112//41
f 116//47 6//47 8//47
f 6//47 116//47 46//47
f 117//46 115//46 118//46
f 115//46 117//46 99//46
f 117//48 98//48 99//48
f 110//42 27//42 41//42
f 27//42 110//42 98//42
f 98//42 110//42 119//42
f 98//49 55//49 25//49
f 55//49 98//49 113//49
f 120//50 113//50 121//50
f 120//45 114//45 113//45
f 117//49 113//49 98//49
f 117//50 121//50 113//50
f 121//50 117//50 118//50
f 122//48 98//48 119//48
f 98//48 122//48 99//48
f 99//38 122//38 100//38
f 109//47 46//47 116//47
f 46//47 109//47 43//47
f 123//51 124//51 125//51
f 126//52 127//52 124//52
f 126//53 128//53 129//53
f 128//53 126//53 124//53
f 17//54 105//54 130//54
f 105//54 17//54 19//54
f 116//55 5//55 82//55
f 5//55 116//55 8//55
f 125//51 84//51 88//51
f 125//51 88//51 131//51
f 84//51 125//51 124//51
f 132//56 91//56 133//56
f 91//56 132//56 92//56
f 126//57 134//57 135//57
f 134//57 126//57 129//57
f 135//58 127//58 126//58
f 124//59 80//59 84//59
f 133//43 4//43 1//43
f 4//43 133//43 91//43
f 130//54 102//54 136//54
f 102//54 130//54 105//54
f 137//60 94//60 96//60
f 94//60 137//60 138//60
f 127//58 122//58 119//58
f 122//58 127//58 135//58
f 110//61 83//61 127//61
f 83//61 110//61 67//61
f 110//61 127//61 119//61
f 100//62 122//62 135//62
f 127//63 83//63 78//63
f 77//52 127//52 78//52
f 127//52 77//52 124//52
f 139//57 135//57 134//57
f 131//56 92//56 132//56
f 92//56 131//56 88//56
f 128//53 124//53 123//53
f 140//64 101//64 135//64
f 101//64 140//64 96//64
f 96//64 140//64 137//64
f 67//61 109//61 68//61
f 109//61 67//61 110//61
f 109//55 82//55 68//55
f 82//55 109//55 116//55
f 140//64 135//64 139//64
f 124//59 77//59 80//59
f 138//60 102//60 94//60
f 102//60 138//60 136//60
f 101//62 100//62 135//62
f 141//65 142//65 143//65
f 142//65 141//65 144//65
f 145//66 146//66 147//66
f 148//66 146//66 145//66
f 146//66 148//66 149//66
f 150//67 151//67 152//67
f 149//66 142//66 146//66
f 142//66 149//66 143//66
f 29//68 153//68 30//68
f 153//68 29//68 154//68
f 155//69 156//69 157//69
f 63//70 152//70 61//70
f 153//71 49//71 30//71
f 49//71 153//71 158//71
f 159//72 53//72 62//72
f 53//72 159//72 156//72
f 145//73 160//73 156//73
f 160//73 145//73 147//73
f 21//71 158//71 24//71
f 158//71 21//71 49//71
f 32//68 154//68 29//68
f 154//68 32//68 161//68
f 145//74 162//74 148//74
f 34//75 54//75 156//75
f 155//75 34//75 156//75
f 161//75 34//75 155//75
f 34//75 161//75 32//75
f 12//76 52//76 10//76
f 52//76 12//76 163//76
f 14//65 144//65 141//65
f 144//65 14//65 16//65
f 157//69 156//69 160//69
f 54//72 53//72 156//72
f 152//67 151//67 164//67
f 165//77 37//77 39//77
f 37//77 165//77 166//77
f 163//77 39//77 52//77
f 39//77 163//77 165//77
f 145//78 164//78 162//78
f 164//78 145//78 152//78
f 159//73 145//73 156//73
f 166//79 59//79 37//79
f 150//79 59//79 166//79
f 59//79 150//79 152//79
f 63//79 59//79 152//79
f 159//78 152//78 145//78
f 159//70 61//70 152//70
f 61//70 159//70 62//70
f 167//80 168//80 169//80
f 146//81 170//81 147//81
f 171//81 146//81 172//81
f 146//81 171//81 170//81
f 69//82 155//82 173//82
f 155//82 69//82 161//82
f 161//82 69//82 70//82
f 154//83 70//83 65//83
f 70//83 154//83 161//83
f 153//84 72//84 158//84
f 72//84 153//84 66//84
f 153//83 65//83 66//83
f 65//83 153//83 154//83
f 172//81 142//81 174//81
f 142//81 172//81 146//81
f 69//82 173//82 81//82
f 175//85 85//85 76//85
f 85//85 175//85 167//85
f 175//86 170//86 167//86
f 158//84 22//84 24//84
f 22//84 158//84 72//84
f 170//86 176//86 167//86
f 176//86 170//86 177//86
f 81//87 173//87 75//87
f 89//88 178//88 93//88
f 178//88 89//88 179//88
f 87//89 179//89 89//89
f 169//89 87//89 167//89
f 87//89 169//89 179//89
f 175//87 75//87 173//87
f 75//87 175//87 76//87
f 180//90 142//90 144//90
f 142//90 180//90 174//90
f 170//91 171//91 177//91
f 167//80 176//80 168//80
f 157//92 160//92 173//92
f 155//92 157//92 173//92
f 93//88 181//88 90//88
f 181//88 93//88 178//88
f 3//76 90//76 181//76
f 90//76 3//76 2//76
f 86//89 167//89 87//89
f 85//85 167//85 86//85
f 13//90 144//90 16//90
f 144//90 13//90 180//90
f 170//93 160//93 147//93
f 160//93 170//93 173//93
f 173//93 170//93 175//93
f 162//94 182//94 148//94
f 149//95 183//95 143//95
f 183//95 149//95 184//95
f 185//96 106//96 95//96
f 106//96 185//96 186//96
f 106//96 186//96 187//96
f 95//97 188//97 185//97
f 188//97 95//97 97//97
f 182//98 189//98 190//98
f 189//98 182//98 187//98
f 97//97 191//97 188//97
f 191//97 97//97 104//97
f 192//99 187//99 186//99
f 184//95 148//95 182//95
f 148//95 184//95 149//95
f 184//95 182//95 190//95
f 151//100 150//100 193//100
f 114//101 166//101 107//101
f 150//101 114//101 193//101
f 114//101 150//101 166//101
f 115//102 111//102 187//102
f 183//103 141//103 143//103
f 141//103 183//103 194//103
f 194//103 14//103 141//103
f 14//103 194//103 15//103
f 189//99 187//99 192//99
f 182//104 164//104 193//104
f 164//104 182//104 162//104
f 151//100 193//100 164//100
f 193//104 195//104 182//104
f 182//98 195//98 187//98
f 108//105 163//105 112//105
f 163//105 108//105 165//105
f 107//105 165//105 108//105
f 165//105 107//105 166//105
f 103//106 191//106 104//106
f 191//106 103//106 196//106
f 18//106 196//106 103//106
f 196//106 18//106 20//106
f 12//107 112//107 163//107
f 112//107 12//107 9//107
f 114//101 120//101 193//101
f 193//108 120//108 121//108
f 111//96 106//96 187//96
f 195//108 121//108 118//108
f 121//108 195//108 193//108
f 115//102 195//102 118//102
f 195//102 115//102 187//102
f 197//109 198//109 199//109
f 191//110 130//110 136//110
f 130//110 191//110 196//110
f 183//111 172//111 174//111
f 172//111 183//111 184//111
f 171//112 197//112 177//112
f 198//113 140//113 139//113
f 183//114 180//114 194//114
f 180//114 183//114 174//114
f 184//111 171//111 172//111
f 171//111 184//111 197//111
f 197//111 184//111 190//111
f 192//115 186//115 198//115
f 197//116 176//116 177//116
f 176//116 197//116 200//116
f 134//117 199//117 198//117
f 199//117 134//117 129//117
f 140//113 186//113 185//113
f 140//113 185//113 137//113
f 186//113 140//113 198//113
f 191//118 138//118 188//118
f 138//118 191//118 136//118
f 179//119 125//119 131//119
f 169//119 125//119 179//119
f 125//119 169//119 200//119
f 200//120 128//120 123//120
f 200//119 123//119 125//119
f 17//110 196//110 20//110
f 196//110 17//110 130//110
f 194//114 13//114 15//114
f 13//114 194//114 180//114
f 198//117 139//117 134//117
f 188//118 137//118 185//118
f 137//118 188//118 138//118
f 168//121 200//121 169//121
f 176//121 200//121 168//121
f 189//115 192//115 198//115
f 189//109 197//109 190//109
f 197//109 189//109 198//109
f 128//120 199//120 129//120
f 199//120 128//120 200//120
f 197//116 199//116 200//116
f 3//107 133//107 1//107
f 133//107 3//107 181//107
f 178//122 131//122 132//122
f 131//122 178//122 179//122
f 181//122 132//122 133//122
f 132//122 181//122 178//122
